<?xml version="1.0" standalone="no"?><!DOCTYPE svg PUBLIC "-//W3C//DTD SVG 1.1//EN" "http://www.w3.org/Graphics/SVG/1.1/DTD/svg11.dtd"><svg t="1563330171524" class="icon" viewBox="0 0 1024 1024" version="1.1" xmlns="http://www.w3.org/2000/svg" p-id="1600" xmlns:xlink="http://www.w3.org/1999/xlink" width="200" height="200">
<path d="M505.742222 1011.882667a498.801778 498.801778 0 0 1-353.450666-146.432A498.176 498.176 0 0 1 5.916444 512a497.891556 497.891556 0 0 1 146.432-353.450667A497.777778 497.777778 0 0 1 505.856 12.117333h1.194667l-0.113778 67.811556h-1.024A428.544 428.544 0 0 0 200.476444 206.506667 428.942222 428.942222 0 0 0 73.728 512a428.942222 428.942222 0 0 0 126.577778 305.550222 429.056 429.056 0 0 0 305.436444 126.577778 429.511111 429.511111 0 0 0 305.493334-126.464 429.056 429.056 0 0 0 126.577777-305.379556h67.754667a497.550222 497.550222 0 0 1-146.432 353.223112 498.005333 498.005333 0 0 1-353.393778 146.375111z m498.574222-686.933334h-67.754666V82.830222h-242.972445V15.018667h310.784v309.930666z m0 0" fill="#383838"></path>
<path d="M946.119111 24.632889l47.900445 47.900444-431.502223 431.559111-47.957333-47.957333L946.119111 24.632889z m0 0" fill="#383838"></path>
</svg>